<svg width="400" height="300" viewBox="0 0 400 300" fill="none" xmlns="http://www.w3.org/2000/svg">
<path d="M170.74 154.3C136 175 99.3799 265.11 99.3799 265.11L271.89 264.2C271.89 264.2 311.23 169.84 296.64 154.62C282.05 139.4 185.43 145.55 170.74 154.3Z" fill="#1264D1"/>
<path d="M141.91 262.75C141.825 262.747 141.743 262.723 141.67 262.68C141.612 262.65 141.561 262.608 141.52 262.558C141.479 262.507 141.448 262.449 141.429 262.387C141.411 262.325 141.405 262.259 141.412 262.194C141.419 262.13 141.438 262.067 141.47 262.01C142.27 260.56 147.47 249.47 153.96 235.44C174.74 190.75 184.85 169.38 186.05 168.78C186.168 168.723 186.304 168.715 186.429 168.756C186.554 168.797 186.658 168.884 186.72 169C186.749 169.059 186.766 169.123 186.77 169.189C186.774 169.255 186.765 169.321 186.744 169.383C186.723 169.445 186.689 169.502 186.646 169.552C186.602 169.601 186.549 169.641 186.49 169.67C184.97 171.12 166.85 210.08 154.86 235.86C148.32 249.86 143.16 261.01 142.34 262.49C142.297 262.567 142.235 262.631 142.159 262.677C142.084 262.722 141.998 262.747 141.91 262.75Z" fill="#093269"/>
<path d="M213 155.67C213 155.67 203 183.27 212 190.4C221 197.53 250.86 165.9 254.52 144.74C258.18 123.58 213 155.67 213 155.67Z" fill="#093269"/>
<path d="M215.21 191.93C213.943 191.967 212.703 191.564 211.7 190.79C202.51 183.52 212.08 156.64 212.5 155.5C212.529 155.401 212.593 155.316 212.68 155.26C213.98 154.33 244.78 132.61 253.11 137.86C254.97 139.03 255.61 141.37 255.02 144.86C252.02 162.17 231.69 186.36 219.26 191.11C217.97 191.624 216.598 191.902 215.21 191.93ZM213.38 155.93C212.62 158.1 204.02 183.39 212.32 189.93C213.81 191.12 216.03 191.16 218.9 190.06C231.12 185.39 251.1 161.6 254.04 144.57C254.56 141.57 254.04 139.57 252.58 138.57C249.42 136.57 241.64 138.92 230.1 145.35C221.89 150.06 214.44 155.24 213.38 156V155.93Z" fill="#093269"/>
<path d="M212 132.28L213 155.67C213 155.67 221.66 169.17 236.2 163.83C240.486 162.211 244.357 159.658 247.533 156.356C250.709 153.054 253.109 149.086 254.56 144.74L249.51 102.56C249.51 102.56 237.74 97.92 238.22 73.47C226.599 80.1381 213.397 83.5544 200 83.36C200 83.36 196.23 110.26 199.37 121.64C202.51 133.02 212 132.28 212 132.28Z" fill="white"/>
<path d="M229.51 165.57C218.87 165.57 212.62 156.05 212.51 155.94C212.467 155.863 212.443 155.778 212.44 155.69L211.44 132.79C209.36 132.79 201.58 131.86 198.8 121.79C195.66 110.44 199.26 84.41 199.41 83.31C199.432 83.1924 199.494 83.0859 199.585 83.0078C199.676 82.9297 199.79 82.8846 199.91 82.88C213.225 83.0582 226.345 79.6712 237.91 73.07C237.986 73.0184 238.075 72.9888 238.167 72.9846C238.259 72.9804 238.351 73.0017 238.432 73.0462C238.512 73.0907 238.579 73.1566 238.625 73.2367C238.67 73.3168 238.693 73.4079 238.69 73.5C238.44 85.92 241.45 93 244 96.83C246.76 100.9 249.62 102.08 249.65 102.09C249.733 102.125 249.806 102.181 249.86 102.253C249.915 102.325 249.949 102.41 249.96 102.5L254.96 144.68C254.975 144.742 254.975 144.808 254.96 144.87C254.96 145.01 250.96 158.93 236.29 164.3C234.123 165.121 231.827 165.551 229.51 165.57ZM213.51 155.51C214.41 156.86 222.59 168.31 236.05 163.36C249.51 158.41 253.7 145.89 254.05 144.69L249.05 102.9C247.22 102.02 237.53 96.33 237.7 74.36C226.396 80.5736 213.709 83.8408 200.81 83.86H200.41C199.95 87.37 196.97 111.14 199.83 121.5C202.83 132.33 211.57 131.81 211.95 131.78C212.085 131.777 212.216 131.823 212.32 131.91C212.419 132.001 212.48 132.126 212.49 132.26L213.51 155.51Z" fill="#093269"/>
<path d="M243.8 102.2C244.073 100.086 245.024 98.118 246.51 96.59C247.963 95.2395 249.633 94.1441 251.45 93.35C252.398 92.8131 253.453 92.4953 254.54 92.42C255.304 92.451 256.055 92.631 256.75 92.95C258.461 93.5506 259.899 94.7468 260.8 96.32C261.372 97.6594 261.606 99.119 261.48 100.57C261.485 102.151 261.276 103.725 260.86 105.25C260.41 106.766 259.663 108.178 258.663 109.403C257.662 110.628 256.428 111.642 255.033 112.386C253.637 113.131 252.108 113.59 250.533 113.739C248.958 113.887 247.37 113.721 245.86 113.25" fill="white"/>
<path d="M249.42 114.27C248.172 114.275 246.93 114.086 245.74 113.71C245.676 113.693 245.617 113.663 245.565 113.622C245.514 113.581 245.471 113.53 245.44 113.472C245.409 113.414 245.391 113.35 245.385 113.284C245.38 113.218 245.389 113.152 245.41 113.09C245.428 113.027 245.459 112.969 245.5 112.918C245.542 112.867 245.593 112.825 245.65 112.794C245.708 112.763 245.772 112.744 245.837 112.739C245.902 112.733 245.968 112.74 246.03 112.76C247.474 113.209 248.994 113.368 250.499 113.226C252.005 113.084 253.468 112.644 254.803 111.932C256.138 111.221 257.318 110.251 258.275 109.08C259.233 107.909 259.948 106.56 260.38 105.11C260.781 103.623 260.983 102.09 260.98 100.55C261.095 99.1854 260.878 97.8133 260.35 96.55C259.492 95.0955 258.151 93.9879 256.56 93.42C255.932 93.1262 255.253 92.9597 254.56 92.93C253.553 93.008 252.576 93.3086 251.7 93.81C249.934 94.5772 248.311 95.639 246.9 96.95C245.488 98.3968 244.586 100.264 244.33 102.27C244.323 102.336 244.302 102.4 244.27 102.457C244.238 102.515 244.194 102.566 244.142 102.607C244.09 102.648 244.03 102.678 243.966 102.696C243.903 102.714 243.836 102.718 243.77 102.71C243.638 102.692 243.518 102.624 243.436 102.52C243.354 102.415 243.316 102.282 243.33 102.15C243.621 99.928 244.62 97.859 246.18 96.25C247.672 94.8576 249.39 93.7283 251.26 92.91C252.278 92.3408 253.407 91.9996 254.57 91.91C255.403 91.9431 256.221 92.1366 256.98 92.48C258.798 93.1274 260.323 94.4045 261.28 96.08C261.887 97.4946 262.137 99.0362 262.01 100.57C262.014 102.195 261.799 103.813 261.37 105.38C260.612 107.951 259.041 110.207 256.891 111.808C254.742 113.409 252.13 114.27 249.45 114.26L249.42 114.27Z" fill="#093269"/>
<path d="M215.21 110.78C214.037 110.865 212.874 110.508 211.95 109.78C209.8 107.78 215.08 97.9 216.75 94.91C216.815 94.7948 216.923 94.7101 217.051 94.6745C217.178 94.6389 217.314 94.6552 217.43 94.72C217.545 94.7851 217.63 94.8933 217.665 95.0207C217.701 95.1482 217.685 95.2846 217.62 95.4C214.38 101.19 211.55 108.05 212.62 109.05C214.1 110.43 217.92 109.53 219.27 109.05C219.396 109.008 219.533 109.017 219.653 109.075C219.772 109.133 219.865 109.235 219.91 109.36C219.951 109.485 219.942 109.621 219.884 109.739C219.826 109.856 219.724 109.947 219.6 109.99C218.184 110.468 216.704 110.735 215.21 110.78Z" fill="#093269"/>
<path d="M244.53 68.89C244.53 68.89 256.53 72.8 270.43 86.54L268.52 94.15C268.52 94.15 258 80.69 245 76.08L244.53 68.89Z" fill="#093269"/>
<path d="M268.52 94.65C268.445 94.649 268.371 94.6314 268.304 94.5985C268.236 94.5657 268.177 94.5184 268.13 94.46C268.03 94.32 257.58 81.05 244.79 76.54C244.697 76.5074 244.615 76.4485 244.555 76.3704C244.494 76.2923 244.458 76.1984 244.45 76.1L244 68.92C243.994 68.8388 244.009 68.7574 244.042 68.683C244.075 68.6087 244.126 68.5435 244.19 68.4933C244.254 68.443 244.33 68.4091 244.41 68.3946C244.49 68.3801 244.572 68.3854 244.65 68.41C244.77 68.41 256.89 72.53 270.75 86.19C270.81 86.2507 270.853 86.3258 270.876 86.4081C270.899 86.4903 270.9 86.5771 270.88 86.66L269 94.27C268.977 94.3606 268.929 94.443 268.862 94.5083C268.795 94.5735 268.711 94.6191 268.62 94.64L268.52 94.65ZM245.43 75.72C256.54 79.72 265.83 90.15 268.28 93.07L269.88 86.7C258.17 75.22 247.8 70.7 245.07 69.62L245.43 75.72Z" fill="#093269"/>
<path d="M173.6 99.44C173.6 99.44 195.16 110 197.49 110C199.82 110 209.33 109.36 210.17 107.25C211.01 105.14 208.9 104.08 211.44 103.66C213.98 103.24 216.73 106.4 220.53 106.4C224.33 106.4 246.53 101.54 250.53 97.52C254.53 93.5 255.4 71.1 252.65 66.66C249.9 62.22 238.8 51.75 233.41 50.8C228.41 49.92 182.24 61.37 175.48 66.45C168.72 71.53 169.37 91.83 173.6 99.44Z" fill="white"/>
<path d="M197.49 110.51C195.11 110.51 175.59 100.97 173.38 99.89C173.287 99.8445 173.21 99.7711 173.16 99.68C168.78 91.8 168.32 71.21 175.16 66.05C181.71 61.14 228.16 49.37 233.48 50.32C239.05 51.32 250.31 61.97 253.05 66.4C254.6 68.9 254.95 76.18 254.61 82.29C254.44 85.23 253.69 95.07 250.87 97.89C246.59 102.17 224.02 106.89 220.49 106.89C218.593 106.781 216.751 106.215 215.12 105.24C213.74 104.55 212.55 103.96 211.48 104.14C210.76 104.26 210.63 104.4 210.62 104.43C210.61 104.46 210.62 104.79 210.69 105.01C210.928 105.805 210.896 106.655 210.6 107.43C209.5 110.28 197.61 110.51 197.49 110.51ZM174 99.06C182.63 103.29 195.91 109.51 197.53 109.51C201.39 109.51 209.15 108.51 209.75 107.07C209.954 106.481 209.954 105.839 209.75 105.25C209.667 105.031 209.631 104.797 209.643 104.563C209.655 104.329 209.715 104.1 209.82 103.89C210.015 103.673 210.252 103.497 210.517 103.374C210.782 103.25 211.068 103.181 211.36 103.17C212.75 102.94 214.14 103.63 215.6 104.37C217.098 105.267 218.788 105.795 220.53 105.91C224.22 105.91 246.27 101.11 250.2 97.18C254.13 93.25 254.88 71.18 252.2 66.93C249.52 62.68 238.5 52.21 233.34 51.3C228.18 50.39 182.27 62 175.8 66.86C169.33 71.72 169.9 91.53 174 99.06Z" fill="#093269"/>
<path d="M232 50.81C222.48 51.66 180 60.11 174 64.24C168 68.37 167.66 95.95 173.69 99.44C179.72 102.93 229.5 93.09 237.75 85.17C246 77.25 241.46 50 232 50.81Z" fill="white"/>
<path d="M178.66 100.67C176.17 100.67 174.3 100.42 173.35 99.87C170.78 98.38 169.07 92.81 168.77 84.96C168.45 76.33 170.01 66.3 173.63 63.82C179.68 59.68 221.94 51.2 231.9 50.31C234.9 50.06 237.66 52.31 239.66 56.73C244.51 67.38 242.75 80.96 238 85.53C233.54 89.82 218 94.3 204.9 97.07C195.37 99.09 185 100.67 178.66 100.67ZM232 50.81V51.31C222.84 52.12 180.11 60.61 174.21 64.65C171.32 66.65 169.42 75.34 169.78 84.93C170.06 92.32 171.62 97.71 173.86 99C176.51 100.54 189.48 99.32 204.7 96.09C220.97 92.65 233.77 88.22 237.32 84.81C242.73 79.61 242.53 65.42 238.76 57.14C237.71 54.83 235.43 50.99 232 51.31V50.81Z" fill="#093269"/>
<path d="M249.5 95.92C249.37 95.9187 249.245 95.8688 249.15 95.78L240.06 87.11C240.013 87.0644 239.976 87.0099 239.951 86.9498C239.926 86.8897 239.913 86.8252 239.913 86.76C239.913 86.6948 239.926 86.6303 239.951 86.5702C239.976 86.5101 240.013 86.4556 240.06 86.41C240.106 86.3631 240.162 86.3259 240.223 86.3006C240.284 86.2752 240.349 86.2621 240.415 86.2621C240.481 86.2621 240.546 86.2752 240.607 86.3006C240.668 86.3259 240.723 86.3631 240.77 86.41L249.86 95.08C249.906 95.1256 249.943 95.1801 249.969 95.2402C249.994 95.3003 250.007 95.3648 250.007 95.43C250.007 95.4952 249.994 95.5597 249.969 95.6198C249.943 95.6799 249.906 95.7344 249.86 95.78C249.813 95.827 249.757 95.8637 249.695 95.8878C249.633 95.9119 249.566 95.9229 249.5 95.92Z" fill="#093269"/>
<path d="M176.13 68.78C173.13 71.78 173.13 86.54 175.92 92.25C178.71 97.96 228.35 86.54 234.27 80.83C240.19 75.12 236.6 60.32 232.16 56.73C227.72 53.14 179.09 65.82 176.13 68.78Z" fill="white"/>
<path d="M182 94.31C180.778 94.325 179.557 94.2347 178.35 94.04C176.77 93.76 175.82 93.24 175.44 92.47C172.72 86.81 172.44 71.73 175.75 68.47C177.45 66.77 191.16 62.75 203.45 59.85C211.19 58.02 229.52 54.02 232.45 56.38C235.38 58.74 237.58 64.89 237.83 70.65C238.04 75.27 236.89 79.03 234.6 81.23C231.54 84.23 218.6 87.98 208.52 90.34C199.66 92.38 188.83 94.31 182 94.31ZM229 56.62C217.76 56.62 179.29 66.32 176.48 69.13C173.67 71.94 173.66 86.43 176.36 92.03C176.58 92.48 177.36 92.85 178.55 93.03C189.41 95.03 228.89 85.29 233.92 80.44C235.99 78.44 237.03 74.95 236.85 70.62C236.61 65.11 234.41 59.17 231.85 57.09C230.963 56.6694 229.975 56.5066 229 56.62Z" fill="#093269"/>
<path d="M313 242C308.833 242.058 304.7 241.241 300.869 239.601C297.038 237.961 293.594 235.535 290.76 232.48C290.713 232.434 290.676 232.38 290.651 232.32C290.626 232.26 290.613 232.195 290.613 232.13C290.613 232.065 290.626 232 290.651 231.94C290.676 231.88 290.713 231.826 290.76 231.78C290.806 231.733 290.862 231.696 290.923 231.671C290.983 231.645 291.049 231.632 291.115 231.632C291.181 231.632 291.246 231.645 291.307 231.671C291.368 231.696 291.423 231.733 291.47 231.78C294.519 235.044 298.28 237.561 302.459 239.138C306.638 240.714 311.125 241.307 315.57 240.87C320.121 240.556 324.542 239.214 328.5 236.945C332.458 234.676 335.849 231.539 338.42 227.77C342.49 221.55 344.49 213.46 344.55 203.03C344.6 193.25 342.91 179.31 334.55 168.42C332.103 165.475 329.38 162.769 326.42 160.34C320.53 155.14 314.42 149.78 313.59 141.58C313.465 139.972 313.465 138.358 313.59 136.75C313.762 134.949 313.738 133.136 313.52 131.34C312.62 125.77 307.72 120.8 300.42 118.06C297.352 116.981 294.219 116.095 291.04 115.41C287.669 114.692 284.351 113.743 281.11 112.57C273.49 109.57 268.49 104.22 267.74 98.2C267.731 98.1343 267.736 98.0675 267.754 98.0037C267.772 97.9398 267.802 97.8801 267.843 97.8279C267.884 97.7758 267.935 97.7324 267.992 97.7001C268.05 97.6679 268.114 97.6474 268.18 97.64C268.244 97.6316 268.31 97.6361 268.372 97.6533C268.435 97.6704 268.494 97.6999 268.545 97.7399C268.596 97.7799 268.639 97.8297 268.671 97.8864C268.702 97.943 268.722 98.0055 268.73 98.07C269.56 104.73 275.86 109.45 281.47 111.63C284.669 112.787 287.944 113.726 291.27 114.44C294.489 115.135 297.662 116.03 300.77 117.12C308.42 119.99 313.55 125.25 314.51 131.18C314.741 133.048 314.768 134.936 314.59 136.81C314.465 138.364 314.465 139.926 314.59 141.48C315.38 149.28 321.33 154.48 327.09 159.59C330.091 162.066 332.853 164.818 335.34 167.81C343.88 178.92 345.61 193.1 345.56 203.04C345.5 213.67 343.44 221.93 339.26 228.32C336.608 232.216 333.106 235.459 329.017 237.805C324.929 240.15 320.362 241.537 315.66 241.86C314.75 242 313.86 242 313 242Z" fill="#093269"/>
<path d="M242.56 237.44C235.41 222.18 171.56 163.51 166.48 155.9C161.4 148.29 162.67 144.01 154.42 138.62C146.17 133.23 133.34 123.71 131.42 124.82C129.5 125.93 129.2 130.21 130.79 132.75C132.38 135.29 137.61 138.46 139.03 141C140.45 143.54 140.46 144.33 140.46 144.33C140.46 144.33 117.46 138.94 114.3 135.76C111.14 132.58 106.53 121.34 103.36 119.76C101.341 118.788 99.0778 118.44 96.8599 118.76C96.8599 118.76 93.5299 114.48 91.3099 116.22C89.8299 117.38 90.0699 119.38 90.9899 120.81C88.4499 119.05 89.2999 123.26 89.4899 124.45C91.3876 135.423 96.9884 145.414 105.359 152.758C113.729 160.102 124.364 164.356 135.49 164.81C139.42 164.95 145.04 164.08 147.87 167.26C150.33 170.02 151.11 174.17 152.79 177.39C155.17 181.957 157.6 186.507 160.08 191.04C166.24 202.29 172.67 213.42 179.59 224.22C187.17 236.03 195.42 249.32 206.77 257.91C230.25 275.71 249.72 252.71 242.56 237.44Z" fill="white"/>
<path d="M223.81 264.9C218.21 264.9 212.24 262.71 206.48 258.35C195.54 250.07 187.37 237.35 180.16 226.05L179.16 224.53C172.96 214.86 166.57 204 159.63 191.32C157.19 186.85 154.73 182.25 152.33 177.66C151.722 176.421 151.185 175.149 150.72 173.85C150.018 171.603 148.924 169.497 147.49 167.63C145.37 165.25 141.49 165.3 137.99 165.35C137.1 165.35 136.25 165.35 135.46 165.35C124.21 164.925 113.449 160.638 104.988 153.211C96.5262 145.784 90.8805 135.67 88.9999 124.57V124.36C88.6999 122.61 88.4499 120.7 89.4099 120.09C89.5973 119.979 89.8123 119.924 90.0299 119.93C89.7407 119.235 89.6818 118.466 89.8618 117.735C90.0417 117.005 90.4511 116.351 91.0299 115.87C91.2875 115.664 91.5844 115.512 91.9024 115.425C92.2205 115.337 92.5531 115.315 92.8799 115.36C94.6899 115.59 96.5099 117.57 97.0899 118.26C99.3141 117.966 101.576 118.313 103.61 119.26C105.53 120.26 107.71 124.08 110.02 128.16C111.65 131.04 113.34 134.03 114.68 135.37C117.03 137.72 131.68 141.67 139.79 143.61C139.465 142.779 139.077 141.973 138.63 141.2C137.472 139.643 136.094 138.262 134.54 137.1C132.978 135.919 131.582 134.533 130.39 132.98C129.357 131.16 129.047 129.018 129.52 126.98C129.613 126.457 129.81 125.957 130.098 125.511C130.387 125.064 130.761 124.68 131.2 124.38C132.75 123.47 137.84 126.73 148.28 133.85C150.58 135.42 152.76 136.91 154.72 138.19C160.2 141.77 161.55 144.84 163.27 148.72C164.273 151.122 165.491 153.428 166.91 155.61C168.71 158.31 178.48 167.99 189.78 179.19C210.31 199.52 238.42 227.37 243.03 237.19C246.57 244.73 243.91 254.43 236.71 260.26C233.086 263.269 228.52 264.911 223.81 264.9ZM139.52 164.34C142.78 164.34 146.17 164.62 148.25 166.97C149.773 168.919 150.932 171.128 151.67 173.49C152.124 174.755 152.648 175.993 153.24 177.2C155.64 181.79 158.09 186.38 160.53 190.84C167.46 203.5 173.84 214.34 180.02 223.99L181.02 225.51C188.19 236.7 196.31 249.38 207.11 257.51C217.27 265.21 228.11 265.94 236.11 259.51C242.96 253.97 245.5 244.77 242.16 237.64C237.62 227.95 209.58 200.18 189.11 179.9C177.3 168.2 167.96 158.95 166.11 156.17C164.659 153.955 163.414 151.612 162.39 149.17C160.74 145.44 159.39 142.49 154.2 139.07C152.2 137.78 150.05 136.29 147.74 134.72C141.84 130.72 132.91 124.61 131.74 125.28C131.092 125.764 130.658 126.481 130.53 127.28C130.105 129.065 130.373 130.945 131.28 132.54C132.423 134.002 133.75 135.31 135.23 136.43C136.881 137.659 138.334 139.132 139.54 140.8C140.96 143.33 141.03 144.22 141.03 144.38C141.029 144.455 141.011 144.529 140.978 144.596C140.946 144.664 140.898 144.723 140.84 144.77C140.781 144.816 140.713 144.848 140.64 144.863C140.568 144.879 140.492 144.878 140.42 144.86C139.42 144.64 117.25 139.4 114.01 136.17C112.58 134.73 110.93 131.82 109.19 128.74C107.19 125.14 104.85 121.07 103.19 120.25C101.264 119.347 99.1146 119.031 97.0099 119.34C96.9197 119.354 96.8274 119.345 96.7417 119.313C96.656 119.282 96.5797 119.229 96.5199 119.16C95.9699 118.45 94.2299 116.58 92.7799 116.41C92.5849 116.381 92.386 116.392 92.1952 116.441C92.0045 116.491 91.8258 116.579 91.6699 116.7C90.4299 117.7 90.6699 119.38 91.4699 120.63C91.5316 120.728 91.5574 120.844 91.5428 120.959C91.5282 121.074 91.4742 121.181 91.3899 121.26C91.3077 121.341 91.1993 121.391 91.084 121.4C90.9687 121.409 90.8539 121.377 90.7599 121.31C90.2499 120.96 90.0199 120.96 89.9699 120.99C89.9199 121.02 89.5499 121.57 89.9699 124.24V124.46C91.814 135.334 97.3464 145.24 105.637 152.514C113.927 159.788 124.469 163.985 135.49 164.4C136.26 164.4 137.1 164.4 137.96 164.4L139.52 164.34Z" fill="#093269"/>
<path d="M114.29 110.28C128.097 110.28 139.29 99.0871 139.29 85.28C139.29 71.4729 128.097 60.28 114.29 60.28C100.483 60.28 89.29 71.4729 89.29 85.28C89.29 99.0871 100.483 110.28 114.29 110.28Z" fill="white"/>
<path d="M114.29 110.78C109.247 110.78 104.316 109.284 100.123 106.482C95.9296 103.681 92.6612 99.6979 90.7311 95.0384C88.8011 90.3789 88.2961 85.2517 89.28 80.3052C90.2639 75.3587 92.6926 70.815 96.2588 67.2488C99.8251 63.6825 104.369 61.2539 109.315 60.27C114.262 59.2861 119.389 59.791 124.048 61.7211C128.708 63.6511 132.691 66.9195 135.493 71.113C138.295 75.3064 139.79 80.2366 139.79 85.28C139.785 92.0414 137.096 98.5243 132.315 103.305C127.534 108.086 121.051 110.775 114.29 110.78ZM114.29 60.78C109.444 60.78 104.708 62.2169 100.679 64.909C96.6496 67.6011 93.5094 71.4275 91.655 75.9043C89.8007 80.381 89.3155 85.3072 90.2608 90.0597C91.2061 94.8122 93.5395 99.1777 96.9659 102.604C100.392 106.031 104.758 108.364 109.51 109.309C114.263 110.255 119.189 109.769 123.666 107.915C128.143 106.061 131.969 102.92 134.661 98.8915C137.353 94.8625 138.79 90.1256 138.79 85.28C138.785 78.7838 136.202 72.5552 131.608 67.9617C127.015 63.3682 120.786 60.7853 114.29 60.78Z" fill="#D5E6FB"/>
<path d="M75.2199 105.39C72.3999 105.39 70.3199 104.88 69.7899 103.5C68.1899 99.3 82.9099 91.42 89.3099 88.23C89.3688 88.1946 89.4344 88.1716 89.5026 88.1627C89.5708 88.1537 89.64 88.1589 89.7061 88.178C89.7722 88.197 89.8336 88.2295 89.8866 88.2733C89.9395 88.3172 89.9829 88.3715 90.0139 88.4328C90.0449 88.4942 90.063 88.5613 90.0669 88.6299C90.0708 88.6986 90.0605 88.7673 90.0367 88.8318C90.0129 88.8963 89.976 88.9551 89.9283 89.0047C89.8807 89.0543 89.8234 89.0936 89.7599 89.12C75.6099 96.18 70.0099 101.25 70.7599 103.12C71.5099 104.99 79.2799 105.12 94.9999 100.79C102 98.87 109.65 96.33 117.25 93.43C125.05 90.43 132.6 87.21 139.08 83.99C153.47 76.85 159.18 71.72 158.44 69.8C157.7 67.88 150.28 67.8 135.24 71.85C135.177 71.8681 135.111 71.8733 135.046 71.8654C134.981 71.8576 134.918 71.8367 134.861 71.804C134.804 71.7714 134.754 71.7277 134.715 71.6754C134.675 71.6232 134.646 71.5636 134.63 71.5C134.61 71.437 134.604 71.3706 134.611 71.305C134.618 71.2394 134.639 71.176 134.672 71.1187C134.705 71.0615 134.749 71.0116 134.802 70.9723C134.855 70.9329 134.916 70.9049 134.98 70.89C141.79 69.07 157.8 65.28 159.38 69.45C160.96 73.62 146 81.68 139.49 84.91C132.98 88.14 125.41 91.42 117.58 94.39C109.95 97.29 102.22 99.85 95.2299 101.77C90.4099 103.09 81.1699 105.39 75.2199 105.39Z" fill="#D5E6FB"/>
<path d="M96.8699 118.8C96.8699 118.8 99.2099 131.54 108.75 140.13L96.8699 118.8Z" fill="white"/>
<path d="M108.75 140.62C108.629 140.621 108.512 140.579 108.42 140.5C98.8599 131.9 96.4199 119.02 96.4199 118.89C96.396 118.757 96.4258 118.621 96.5027 118.51C96.5796 118.399 96.6973 118.324 96.8299 118.3C96.9625 118.276 97.0992 118.306 97.2098 118.383C97.3205 118.46 97.396 118.577 97.4199 118.71C97.4199 118.83 99.8499 131.39 109.15 139.71C109.197 139.756 109.234 139.812 109.259 139.873C109.285 139.934 109.298 139.999 109.298 140.065C109.298 140.131 109.285 140.196 109.259 140.257C109.234 140.318 109.197 140.374 109.15 140.42C109.105 140.484 109.045 140.536 108.975 140.571C108.905 140.606 108.828 140.623 108.75 140.62Z" fill="#093269"/>
<path d="M91 120.85C91 120.85 98.5 139.17 105.18 142.51L91 120.85Z" fill="white"/>
<path d="M105.17 143C105.097 143.014 105.023 143.014 104.95 143C98.18 139.57 90.84 121.8 90.53 121C90.4796 120.877 90.4803 120.738 90.5318 120.616C90.5834 120.493 90.6817 120.395 90.805 120.345C90.9283 120.295 91.0666 120.295 91.1894 120.347C91.3123 120.398 91.4096 120.497 91.46 120.62C91.53 120.81 98.96 138.81 105.4 142.02C105.503 142.07 105.586 142.153 105.634 142.257C105.683 142.36 105.695 142.477 105.668 142.588C105.641 142.699 105.577 142.797 105.487 142.867C105.396 142.936 105.284 142.973 105.17 142.97V143Z" fill="#093269"/>
<path d="M232.07 224.1C231.97 224.104 231.872 224.076 231.79 224.02C231.735 223.984 231.689 223.937 231.652 223.883C231.616 223.828 231.591 223.767 231.579 223.702C231.567 223.638 231.568 223.572 231.582 223.508C231.596 223.444 231.622 223.384 231.66 223.33C231.83 223.07 248.98 197.75 263.11 170.9C263.172 170.784 263.276 170.697 263.402 170.658C263.527 170.618 263.663 170.63 263.78 170.69C263.838 170.72 263.89 170.76 263.932 170.81C263.975 170.86 264.007 170.918 264.026 170.981C264.046 171.043 264.053 171.109 264.046 171.174C264.04 171.239 264.021 171.302 263.99 171.36C249.83 198.27 232.65 223.63 232.48 223.89C232.434 223.956 232.373 224.01 232.301 224.046C232.23 224.083 232.15 224.101 232.07 224.1Z" fill="#093269"/>
<path d="M268.53 83.69C268.409 83.6895 268.293 83.6471 268.2 83.57C268.101 83.4815 268.04 83.3578 268.031 83.2252C268.021 83.0925 268.064 82.9615 268.15 82.86C271.091 79.3976 273.256 75.3454 274.499 70.9762C275.743 66.607 276.037 62.0221 275.36 57.53C274.849 53.5417 273.231 49.7762 270.69 46.66C267.58 43.07 262.69 40.71 256.92 40.02C251.48 39.38 245.92 40.21 241.14 41.02L240.66 41.11C236.55 41.82 232.29 42.56 228.23 41.4C226.223 40.7425 224.3 39.8531 222.5 38.75C221.242 38.01 219.944 37.3423 218.61 36.75C215.551 35.564 212.246 35.1488 208.989 35.5412C205.731 35.9336 202.62 37.1214 199.93 39C197.258 40.9221 195.045 43.4119 193.449 46.2906C191.853 49.1693 190.914 52.3656 190.7 55.65C190.695 55.7157 190.678 55.7798 190.649 55.8387C190.619 55.8976 190.578 55.9501 190.529 55.9933C190.479 56.0365 190.421 56.0695 190.359 56.0903C190.297 56.1112 190.231 56.1196 190.165 56.115C190.099 56.1104 190.035 56.0929 189.976 56.0635C189.917 56.0342 189.865 55.9935 189.822 55.9438C189.778 55.8941 189.746 55.8364 189.725 55.774C189.704 55.7116 189.695 55.6457 189.7 55.58C189.923 52.148 190.903 48.808 192.57 45.7996C194.237 42.7912 196.549 40.1891 199.34 38.18C202.174 36.2068 205.45 34.9627 208.879 34.558C212.309 34.1534 215.785 34.6006 219 35.86C220.373 36.4441 221.709 37.112 223 37.86C224.738 38.9181 226.59 39.7768 228.52 40.42C232.36 41.51 236.52 40.8 240.52 40.1L241 40.02C245.85 39.18 251.5 38.34 257.06 39.02C263.06 39.74 268.2 42.21 271.48 46.02C274.143 49.2817 275.841 53.2237 276.38 57.4C277.076 62.0341 276.772 66.7635 275.489 71.2705C274.206 75.7774 271.973 79.9575 268.94 83.53C268.889 83.5868 268.825 83.6308 268.754 83.6586C268.683 83.6864 268.606 83.6972 268.53 83.69Z" fill="#093269"/>
<path d="M217.75 123.8C216.178 123.814 214.636 123.373 213.31 122.53C209.09 119.86 207.82 113.98 207.76 113.73C207.747 113.664 207.747 113.597 207.76 113.531C207.773 113.465 207.798 113.403 207.836 113.347C207.873 113.291 207.921 113.244 207.976 113.206C208.032 113.169 208.094 113.143 208.16 113.13C208.226 113.117 208.293 113.117 208.359 113.13C208.425 113.143 208.487 113.169 208.543 113.206C208.598 113.243 208.646 113.291 208.684 113.346C208.721 113.402 208.747 113.464 208.76 113.53C208.76 113.53 210.01 119.25 213.87 121.69C214.775 122.244 215.785 122.605 216.837 122.749C217.889 122.894 218.959 122.819 219.98 122.53C228.86 120.4 228.8 109.43 228.8 109.32C228.799 109.254 228.81 109.189 228.834 109.128C228.858 109.067 228.894 109.011 228.939 108.963C228.985 108.916 229.039 108.878 229.099 108.852C229.159 108.826 229.224 108.811 229.29 108.81C229.42 108.812 229.544 108.865 229.637 108.956C229.73 109.047 229.785 109.17 229.79 109.3C229.79 109.42 229.87 121.18 220.2 123.5C219.398 123.696 218.576 123.797 217.75 123.8Z" fill="#093269"/>
<path d="M212 132.28C212 132.28 226.5 132.59 235.32 121.14C235.32 121.14 230.82 144.41 212.61 146.29L212 132.28Z" fill="#093269"/>
<path d="M212.57 146.79C212.449 146.791 212.332 146.749 212.24 146.67C212.139 146.577 212.078 146.448 212.07 146.31L211.46 132.31C211.455 132.243 211.465 132.176 211.489 132.114C211.514 132.052 211.551 131.996 211.6 131.95C211.702 131.858 211.833 131.805 211.97 131.8C212.12 131.8 226.33 131.95 234.89 120.8C234.96 120.715 235.056 120.655 235.163 120.63C235.271 120.605 235.383 120.616 235.484 120.661C235.584 120.707 235.667 120.785 235.719 120.882C235.77 120.979 235.788 121.091 235.77 121.2C235.72 121.44 230.98 144.86 212.62 146.76L212.57 146.79ZM212.48 132.79L213.04 145.79C227.1 143.98 232.68 128.79 234.27 123.17C226.35 131.82 215 132.69 212.48 132.77V132.79Z" fill="#093269"/>
<path d="M246.36 262.23C246.26 262.231 246.162 262.201 246.079 262.146C245.996 262.09 245.931 262.011 245.894 261.918C245.856 261.826 245.847 261.724 245.868 261.626C245.888 261.529 245.938 261.439 246.01 261.37C246.25 261.14 270.35 237.43 285.9 207.44C285.929 207.382 285.97 207.33 286.02 207.287C286.07 207.245 286.128 207.213 286.191 207.194C286.253 207.174 286.319 207.167 286.384 207.173C286.449 207.18 286.512 207.199 286.57 207.23C286.686 207.292 286.773 207.397 286.812 207.522C286.852 207.647 286.84 207.783 286.78 207.9C271.16 238.03 246.95 261.9 246.7 262.09C246.609 262.179 246.487 262.229 246.36 262.23Z" fill="#093269"/>
<path d="M185.54 83.16C185.425 83.1572 185.313 83.1188 185.22 83.05C185.12 82.9629 185.057 82.8409 185.044 82.7089C185.031 82.5769 185.069 82.445 185.15 82.34C190.01 76.34 197.38 67.22 197.74 66.43C197.783 66.3059 197.874 66.2038 197.991 66.1458C198.109 66.0878 198.245 66.0785 198.37 66.12C198.496 66.1674 198.598 66.2615 198.656 66.3827C198.713 66.5038 198.722 66.6426 198.68 66.77C198.4 67.63 188.85 79.39 185.93 82.97C185.884 83.0295 185.825 83.0776 185.757 83.1105C185.69 83.1435 185.615 83.1604 185.54 83.16Z" fill="#D5E6FB"/>
<path d="M203.28 84.85C203.212 84.8503 203.145 84.8362 203.083 84.8086C203.021 84.7811 202.965 84.7406 202.92 84.69C202.873 84.6444 202.836 84.5899 202.811 84.5298C202.786 84.4697 202.773 84.4052 202.773 84.34C202.773 84.2748 202.786 84.2103 202.811 84.1502C202.836 84.0901 202.873 84.0356 202.92 83.99L223.76 63.99C223.805 63.9422 223.859 63.904 223.919 63.878C223.98 63.8519 224.044 63.8385 224.11 63.8385C224.176 63.8385 224.241 63.8519 224.301 63.878C224.361 63.904 224.415 63.9422 224.46 63.99C224.507 64.0365 224.544 64.0918 224.569 64.1527C224.595 64.2136 224.608 64.279 224.608 64.345C224.608 64.411 224.595 64.4764 224.569 64.5373C224.544 64.5982 224.507 64.6535 224.46 64.7L203.62 84.7C203.531 84.7927 203.409 84.8466 203.28 84.85Z" fill="#D5E6FB"/>
<path d="M68.4099 133.91C71.9887 133.91 74.8899 131.009 74.8899 127.43C74.8899 123.851 71.9887 120.95 68.4099 120.95C64.8311 120.95 61.9299 123.851 61.9299 127.43C61.9299 131.009 64.8311 133.91 68.4099 133.91Z" fill="white"/>
<path d="M68.4099 134.4C67.0254 134.4 65.6721 133.989 64.5209 133.22C63.3698 132.451 62.4726 131.358 61.9428 130.079C61.4129 128.8 61.2743 127.392 61.5444 126.034C61.8145 124.677 62.4812 123.429 63.4602 122.45C64.4391 121.471 65.6864 120.805 67.0443 120.534C68.4021 120.264 69.8096 120.403 71.0887 120.933C72.3678 121.463 73.461 122.36 74.2302 123.511C74.9994 124.662 75.4099 126.016 75.4099 127.4C75.4099 129.257 74.6724 131.037 73.3597 132.35C72.0469 133.662 70.2664 134.4 68.4099 134.4ZM68.4099 121.4C67.2232 121.4 66.0632 121.752 65.0765 122.411C64.0898 123.07 63.3208 124.008 62.8666 125.104C62.4125 126.2 62.2937 127.407 62.5252 128.571C62.7567 129.734 63.3282 130.804 64.1673 131.643C65.0064 132.482 66.0755 133.053 67.2394 133.285C68.4033 133.516 69.6097 133.397 70.706 132.943C71.8024 132.489 72.7394 131.72 73.3987 130.733C74.058 129.747 74.4099 128.587 74.4099 127.4C74.3967 125.817 73.7588 124.304 72.635 123.19C71.5112 122.075 69.9926 121.45 68.4099 121.45V121.4Z" fill="#D5E6FB"/>
<path d="M63.09 68.35L64.94 74.64L71.23 76.49L64.94 78.34L63.09 84.63L61.24 78.34L54.95 76.49L61.24 74.64L63.09 68.35Z" fill="#D5E6FB"/>
<path d="M156.28 104.06L157.6 108.53L162.08 109.85L157.6 111.16L156.28 115.64L154.97 111.16L150.49 109.85L154.97 108.53L156.28 104.06Z" fill="#D5E6FB"/>
<path d="M80.05 49.09L81.36 53.56L85.84 54.88L81.36 56.19L80.05 60.67L78.73 56.19L74.26 54.88L78.73 53.56L80.05 49.09Z" fill="white"/>
<path d="M80.0501 61.17C79.9419 61.17 79.8366 61.1349 79.7501 61.07C79.6635 61.0051 79.6004 60.9139 79.5701 60.81L78.3301 56.59L74.1201 55.36C74.0162 55.3297 73.925 55.2665 73.8601 55.18C73.7952 55.0935 73.7601 54.9882 73.7601 54.88C73.7584 54.7714 73.7928 54.6653 73.858 54.5785C73.9232 54.4916 74.0154 54.4288 74.1201 54.4L78.3301 53.16L79.5701 48.94C79.6011 48.8313 79.6667 48.7357 79.7569 48.6677C79.8471 48.5996 79.9571 48.5628 80.0701 48.5628C80.1831 48.5628 80.293 48.5996 80.3832 48.6677C80.4734 48.7357 80.539 48.8313 80.5701 48.94L81.8101 53.16L86.0001 54.4C86.1039 54.4303 86.1952 54.4935 86.2601 54.58C86.325 54.6665 86.3601 54.7718 86.3601 54.88C86.3585 54.9878 86.3228 55.0923 86.2581 55.1785C86.1934 55.2648 86.1031 55.3283 86.0001 55.36L81.7901 56.59L80.5501 60.81C80.5174 60.9163 80.4508 61.009 80.3606 61.074C80.2703 61.139 80.1613 61.1727 80.0501 61.17ZM76.0501 54.88L78.8901 55.71C78.9712 55.7327 79.0451 55.7759 79.1046 55.8354C79.1642 55.895 79.2074 55.9689 79.2301 56.05L80.0701 58.89L80.9001 56.05C80.9252 55.9701 80.9692 55.8975 81.0284 55.8383C81.0876 55.7791 81.1602 55.7351 81.2401 55.71L84.0901 54.88L81.2201 54C81.1394 53.9765 81.0659 53.933 81.0065 53.8736C80.9471 53.8141 80.9036 53.7407 80.8801 53.66L80.0501 50.82L79.2101 53.66C79.1893 53.742 79.1467 53.8169 79.0868 53.8768C79.027 53.9366 78.9521 53.9792 78.8701 54L76.0501 54.88Z" fill="#D5E6FB"/>
<path d="M142.18 47.37C143.423 47.37 144.43 46.3626 144.43 45.12C144.43 43.8774 143.423 42.87 142.18 42.87C140.937 42.87 139.93 43.8774 139.93 45.12C139.93 46.3626 140.937 47.37 142.18 47.37Z" fill="#D5E6FB"/>
<path d="M110.08 64.64C110.08 64.64 100 67.08 96.75 75L110.08 64.64Z" fill="white"/>
<path d="M96.75 75.46C96.6903 75.4695 96.6296 75.4695 96.57 75.46C96.4458 75.409 96.3468 75.3111 96.2944 75.1875C96.242 75.064 96.2404 74.9247 96.29 74.8C99.54 66.8 109.54 64.28 109.96 64.18C110.09 64.1497 110.226 64.1714 110.34 64.2406C110.454 64.3098 110.537 64.4208 110.57 64.55C110.6 64.6786 110.578 64.8139 110.509 64.9263C110.439 65.0387 110.328 65.1191 110.2 65.15C110.1 65.15 100.27 67.63 97.1999 75.15C97.1621 75.239 97.0997 75.3155 97.02 75.3704C96.9403 75.4252 96.8466 75.4563 96.75 75.46Z" fill="#D5E6FB"/>
<path d="M183.83 148.77C180.59 148.77 177.65 146.08 176.02 143.12C174.498 140.155 173.621 136.902 173.445 133.574C173.269 130.246 173.799 126.919 175 123.81C177.454 117.619 181.778 112.347 187.37 108.73C187.423 108.692 187.484 108.666 187.548 108.652C187.612 108.638 187.678 108.637 187.742 108.649C187.807 108.662 187.868 108.686 187.922 108.723C187.977 108.759 188.024 108.805 188.06 108.86C188.133 108.972 188.159 109.108 188.133 109.239C188.107 109.369 188.03 109.485 187.92 109.56C182.498 113.059 178.303 118.163 175.92 124.16C174.773 127.136 174.269 130.322 174.442 133.507C174.614 136.692 175.459 139.805 176.92 142.64C178.58 145.64 181.68 148.37 184.92 147.64C184.984 147.625 185.051 147.623 185.116 147.635C185.181 147.646 185.243 147.67 185.299 147.705C185.355 147.74 185.403 147.786 185.441 147.84C185.479 147.894 185.506 147.956 185.52 148.02C185.544 148.148 185.518 148.281 185.448 148.391C185.377 148.501 185.267 148.579 185.14 148.61C184.711 148.715 184.271 148.769 183.83 148.77Z" fill="#093269"/>
</svg>
