<svg width="95" height="16" viewBox="0 0 95 16" fill="none" xmlns="http://www.w3.org/2000/svg">
<path fill-rule="evenodd" clip-rule="evenodd" d="M84.7473 1.57048C84.7136 1.43494 84.7351 1.29157 84.807 1.17186C84.8789 1.05215 84.9954 0.965879 85.1309 0.932007C89.0847 -0.0542922 93.0902 2.35245 94.0755 6.30647C94.0936 6.37408 94.098 6.4446 94.0886 6.51394C94.0791 6.58328 94.0559 6.65003 94.0204 6.71031C93.9848 6.77059 93.9376 6.82319 93.8815 6.86503C93.8254 6.90687 93.7616 6.93712 93.6936 6.95402C93.6257 6.97092 93.5551 6.97412 93.486 6.96345C93.4168 6.95277 93.3505 6.92843 93.2908 6.89184C93.2312 6.85525 93.1794 6.80714 93.1385 6.75033C93.0977 6.69352 93.0685 6.62914 93.0528 6.56095C92.8519 5.75509 92.4942 4.9967 92.0002 4.32908C91.5062 3.66145 90.8855 3.09767 90.1736 2.66992C89.4617 2.24217 88.6726 1.95882 87.8512 1.83607C87.0298 1.71331 86.1922 1.75354 85.3864 1.95447C85.2508 1.98817 85.1075 1.9667 84.9877 1.89477C84.868 1.82284 84.7812 1.70597 84.7473 1.57048ZM85.2578 3.61601C85.2241 3.48047 85.2456 3.3371 85.3175 3.21739C85.3894 3.09768 85.506 3.01141 85.6414 2.97754C86.9976 2.63949 88.4325 2.85398 89.6305 3.57382C90.8285 4.29367 91.6916 5.45991 92.0298 6.81603C92.0581 6.94961 92.0335 7.08898 91.9611 7.20477C91.8887 7.32056 91.7742 7.40374 91.6417 7.43678C91.5092 7.46981 91.3691 7.45013 91.2508 7.38187C91.1325 7.31362 91.0453 7.20212 91.0077 7.07086C90.8737 6.53356 90.6353 6.0279 90.3059 5.58276C89.9766 5.13762 89.5628 4.76172 89.0881 4.47652C88.6135 4.19133 88.0873 4.00242 87.5396 3.9206C86.992 3.83877 86.4336 3.86563 85.8963 3.99964C85.7607 4.03334 85.6174 4.01187 85.4977 3.93994C85.378 3.86801 85.2917 3.7515 85.2578 3.61601ZM85.767 5.66238C85.7502 5.5952 85.7469 5.52538 85.7571 5.4569C85.7673 5.38842 85.7909 5.32263 85.8266 5.26328C85.8622 5.20393 85.9093 5.15219 85.9649 5.11102C86.0206 5.06984 86.0838 5.04004 86.151 5.02331C86.5539 4.92284 86.9727 4.90273 87.3834 4.96411C87.7941 5.02548 88.1887 5.16716 88.5446 5.38103C88.9006 5.59491 89.2109 5.8768 89.4579 6.21061C89.7049 6.54442 89.8838 6.92362 89.9842 7.32655C90.0126 7.46013 89.988 7.5995 89.9156 7.71529C89.8432 7.83108 89.7287 7.91426 89.5962 7.94729C89.4637 7.98033 89.3235 7.96065 89.2053 7.89239C89.087 7.82414 88.9998 7.71264 88.9621 7.58138C88.8952 7.31273 88.7759 7.0599 88.6113 6.83733C88.4466 6.61476 88.2397 6.42681 88.0024 6.28421C87.765 6.14162 87.5019 6.04716 87.2281 6.00625C86.9543 5.96534 86.6751 5.97877 86.4064 6.04577C86.3393 6.06254 86.2694 6.06591 86.201 6.05569C86.1325 6.04547 86.0667 6.02185 86.0073 5.98619C85.948 5.95053 85.8963 5.90353 85.8551 5.84786C85.8139 5.7922 85.7837 5.72957 85.767 5.66238Z" fill="#567bd8"/>
<path d="M0.660511 15V8.45455H2.64205V9.65625H2.71449C2.85085 9.25852 3.08097 8.9446 3.40483 8.71449C3.72869 8.48438 4.11506 8.36932 4.56392 8.36932C5.01847 8.36932 5.40767 8.4858 5.73153 8.71875C6.0554 8.9517 6.26136 9.2642 6.34943 9.65625H6.41761C6.53977 9.26705 6.77841 8.95597 7.13352 8.72301C7.48864 8.48722 7.90767 8.36932 8.39062 8.36932C9.00994 8.36932 9.51278 8.56818 9.89915 8.96591C10.2855 9.3608 10.4787 9.90341 10.4787 10.5938V15H8.39489V11.071C8.39489 10.7443 8.31108 10.4957 8.14347 10.3253C7.97585 10.152 7.75852 10.0653 7.49148 10.0653C7.20455 10.0653 6.97869 10.1591 6.81392 10.3466C6.65199 10.5312 6.57102 10.7798 6.57102 11.0923V15H4.56818V11.0497C4.56818 10.7457 4.4858 10.5057 4.32102 10.3295C4.15625 10.1534 3.93892 10.0653 3.66903 10.0653C3.48722 10.0653 3.3267 10.1094 3.1875 10.1974C3.0483 10.2827 2.93892 10.4048 2.85938 10.5639C2.78267 10.723 2.74432 10.9105 2.74432 11.1264V15H0.660511ZM14.8253 15.1236C14.1378 15.1236 13.5469 14.983 13.0526 14.7017C12.5611 14.4176 12.1818 14.0227 11.9148 13.517C11.6506 13.0085 11.5185 12.419 11.5185 11.7486C11.5185 11.0753 11.6506 10.4858 11.9148 9.98011C12.1818 9.47159 12.5611 9.0767 13.0526 8.79545C13.5469 8.51136 14.1378 8.36932 14.8253 8.36932C15.5128 8.36932 16.1023 8.51136 16.5938 8.79545C17.0881 9.0767 17.4673 9.47159 17.7315 9.98011C17.9986 10.4858 18.1321 11.0753 18.1321 11.7486C18.1321 12.419 17.9986 13.0085 17.7315 13.517C17.4673 14.0227 17.0881 14.4176 16.5938 14.7017C16.1023 14.983 15.5128 15.1236 14.8253 15.1236ZM14.8381 13.5511C15.0881 13.5511 15.2997 13.4744 15.473 13.321C15.6463 13.1676 15.7784 12.9545 15.8693 12.6818C15.9631 12.4091 16.0099 12.0937 16.0099 11.7358C16.0099 11.3722 15.9631 11.054 15.8693 10.7812C15.7784 10.5085 15.6463 10.2955 15.473 10.142C15.2997 9.98864 15.0881 9.91193 14.8381 9.91193C14.5795 9.91193 14.3608 9.98864 14.1818 10.142C14.0057 10.2955 13.8707 10.5085 13.777 10.7812C13.6861 11.054 13.6406 11.3722 13.6406 11.7358C13.6406 12.0937 13.6861 12.4091 13.777 12.6818C13.8707 12.9545 14.0057 13.1676 14.1818 13.321C14.3608 13.4744 14.5795 13.5511 14.8381 13.5511ZM19.1996 15V6.27273H21.2834V9.57528H21.326C21.4112 9.37642 21.532 9.18466 21.6882 9C21.8473 8.81534 22.049 8.66477 22.2933 8.5483C22.5405 8.42898 22.8359 8.36932 23.1797 8.36932C23.6342 8.36932 24.0589 8.48864 24.4538 8.72727C24.8516 8.96591 25.1726 9.33381 25.4169 9.83097C25.6612 10.3281 25.7834 10.9616 25.7834 11.7315C25.7834 12.473 25.6655 13.0938 25.4297 13.5938C25.1967 14.0938 24.8814 14.4688 24.4837 14.7188C24.0888 14.9688 23.6499 15.0938 23.1669 15.0938C22.8374 15.0938 22.5518 15.0398 22.3104 14.9318C22.0689 14.8239 21.8658 14.6818 21.701 14.5057C21.5391 14.3295 21.4141 14.1406 21.326 13.9389H21.2621V15H19.1996ZM21.2408 11.7273C21.2408 12.0795 21.2876 12.3864 21.3814 12.6477C21.478 12.9091 21.6158 13.1122 21.7947 13.2571C21.9766 13.3991 22.1939 13.4702 22.4467 13.4702C22.7024 13.4702 22.9197 13.3991 23.0987 13.2571C23.2777 13.1122 23.4126 12.9091 23.5036 12.6477C23.5973 12.3864 23.6442 12.0795 23.6442 11.7273C23.6442 11.375 23.5973 11.0696 23.5036 10.8111C23.4126 10.5526 23.2777 10.3523 23.0987 10.2102C22.9226 10.0682 22.7053 9.99716 22.4467 9.99716C22.1911 9.99716 21.9737 10.0668 21.7947 10.206C21.6158 10.3452 21.478 10.544 21.3814 10.8026C21.2876 11.0611 21.2408 11.3693 21.2408 11.7273ZM26.8754 15V8.45455H28.9592V15H26.8754ZM27.9194 7.69176C27.6268 7.69176 27.3754 7.59517 27.1651 7.40199C26.9549 7.20597 26.8498 6.97017 26.8498 6.6946C26.8498 6.42187 26.9549 6.18892 27.1651 5.99574C27.3754 5.79972 27.6268 5.7017 27.9194 5.7017C28.2148 5.7017 28.4663 5.79972 28.6737 5.99574C28.8839 6.18892 28.989 6.42187 28.989 6.6946C28.989 6.97017 28.8839 7.20597 28.6737 7.40199C28.4663 7.59517 28.2148 7.69176 27.9194 7.69176ZM33.3452 15.1236C32.6605 15.1236 32.0696 14.9886 31.5724 14.7188C31.0781 14.446 30.6974 14.0582 30.4304 13.5554C30.1662 13.0497 30.0341 12.4489 30.0341 11.7528C30.0341 11.0767 30.1676 10.4858 30.4347 9.98011C30.7017 9.47159 31.0781 9.0767 31.5639 8.79545C32.0497 8.51136 32.6222 8.36932 33.2812 8.36932C33.7472 8.36932 34.1733 8.44176 34.5597 8.58665C34.946 8.73153 35.2798 8.94602 35.5611 9.23011C35.8423 9.5142 36.0611 9.86506 36.2173 10.2827C36.3736 10.6974 36.4517 11.1733 36.4517 11.7102V12.2301H30.7628V11.0199H34.5128C34.5099 10.7983 34.4574 10.6009 34.3551 10.4276C34.2528 10.2543 34.1122 10.1193 33.9332 10.0227C33.7571 9.9233 33.554 9.87358 33.3239 9.87358C33.0909 9.87358 32.8821 9.92614 32.6974 10.0312C32.5128 10.1335 32.3665 10.2741 32.2585 10.4531C32.1506 10.6293 32.0938 10.8295 32.0881 11.054V12.2855C32.0881 12.5526 32.1406 12.7869 32.2457 12.9886C32.3509 13.1875 32.5 13.3423 32.6932 13.4531C32.8864 13.5639 33.1165 13.6193 33.3835 13.6193C33.5682 13.6193 33.7358 13.5937 33.8864 13.5426C34.0369 13.4915 34.1662 13.4162 34.2741 13.3168C34.3821 13.2173 34.4631 13.0952 34.517 12.9503L36.4304 13.0057C36.3509 13.4347 36.1761 13.8082 35.9062 14.1264C35.6392 14.4418 35.2884 14.6875 34.8537 14.8636C34.419 15.0369 33.9162 15.1236 33.3452 15.1236ZM39.9066 15.0938C39.4237 15.0938 38.9847 14.9688 38.5898 14.7188C38.195 14.4688 37.8796 14.0938 37.6438 13.5938C37.408 13.0938 37.2901 12.473 37.2901 11.7315C37.2901 10.9616 37.4123 10.3281 37.6566 9.83097C37.9009 9.33381 38.2205 8.96591 38.6154 8.72727C39.0131 8.48864 39.4407 8.36932 39.8981 8.36932C40.2418 8.36932 40.5359 8.42898 40.7802 8.5483C41.0245 8.66477 41.2262 8.81534 41.3853 9C41.5444 9.18466 41.6651 9.37642 41.7475 9.57528H41.7901V6.27273H43.8739V15H41.8114V13.9389H41.7475C41.6594 14.1406 41.5344 14.3295 41.3725 14.5057C41.2106 14.6818 41.0075 14.8239 40.7631 14.9318C40.5217 15.0398 40.2362 15.0938 39.9066 15.0938ZM40.631 13.4702C40.8839 13.4702 41.0998 13.3991 41.2788 13.2571C41.4577 13.1122 41.5955 12.9091 41.6921 12.6477C41.7887 12.3864 41.837 12.0795 41.837 11.7273C41.837 11.3693 41.7887 11.0611 41.6921 10.8026C41.5984 10.544 41.4606 10.3452 41.2788 10.206C41.0998 10.0668 40.8839 9.99716 40.631 9.99716C40.3725 9.99716 40.1538 10.0682 39.9748 10.2102C39.7958 10.3523 39.6594 10.5526 39.5657 10.8111C39.4748 11.0696 39.4293 11.375 39.4293 11.7273C39.4293 12.0795 39.4762 12.3864 39.57 12.6477C39.6637 12.9091 39.7987 13.1122 39.9748 13.2571C40.1538 13.3991 40.3725 13.4702 40.631 13.4702ZM49.4148 12.1747V8.45455H51.4943V15H49.5085V13.7812H49.4403C49.2955 14.1818 49.0483 14.5 48.6989 14.7358C48.3523 14.9687 47.9332 15.0852 47.4418 15.0852C46.9957 15.0852 46.6037 14.983 46.2656 14.7784C45.9276 14.5739 45.6648 14.2884 45.4773 13.9219C45.2898 13.5526 45.1946 13.1207 45.1918 12.6264V8.45455H47.2756V12.2173C47.2784 12.5724 47.3722 12.8523 47.5568 13.0568C47.7415 13.2614 47.9929 13.3636 48.3111 13.3636C48.5185 13.3636 48.7045 13.3182 48.8693 13.2273C49.0369 13.1335 49.169 12.9986 49.2656 12.8224C49.3651 12.6435 49.4148 12.4276 49.4148 12.1747ZM55.8761 15.1236C55.1857 15.1236 54.5934 14.9815 54.0991 14.6974C53.6076 14.4134 53.2298 14.0185 52.9656 13.5128C52.7013 13.0043 52.5692 12.4162 52.5692 11.7486C52.5692 11.0781 52.7013 10.4901 52.9656 9.98438C53.2326 9.47585 53.6119 9.07955 54.1033 8.79545C54.5977 8.51136 55.1871 8.36932 55.8718 8.36932C56.4769 8.36932 57.0039 8.47869 57.4528 8.69744C57.9045 8.91619 58.2567 9.22585 58.5096 9.62642C58.7653 10.0241 58.9002 10.4915 58.9144 11.0284H56.967C56.9272 10.6932 56.8136 10.4304 56.6261 10.2401C56.4414 10.0497 56.1999 9.95455 55.9016 9.95455C55.6602 9.95455 55.4485 10.0227 55.2667 10.1591C55.0849 10.2926 54.9428 10.4915 54.8406 10.7557C54.7411 11.017 54.6914 11.3409 54.6914 11.7273C54.6914 12.1136 54.7411 12.4403 54.8406 12.7074C54.9428 12.9716 55.0849 13.1719 55.2667 13.3082C55.4485 13.4418 55.6602 13.5085 55.9016 13.5085C56.0948 13.5085 56.2653 13.4673 56.413 13.3849C56.5636 13.3026 56.6871 13.1818 56.7837 13.0227C56.8803 12.8608 56.9414 12.6648 56.967 12.4347H58.9144C58.8945 12.9744 58.7596 13.446 58.5096 13.8494C58.2624 14.2528 57.9144 14.5668 57.4656 14.7912C57.0195 15.0128 56.4897 15.1236 55.8761 15.1236ZM61.826 15.1108C61.4084 15.1108 61.0376 15.0412 60.7138 14.902C60.3928 14.7599 60.1385 14.5469 59.951 14.2628C59.7663 13.9759 59.674 13.6165 59.674 13.1847C59.674 12.821 59.7379 12.5142 59.8658 12.2642C59.9936 12.0142 60.1697 11.8111 60.3942 11.6548C60.6186 11.4986 60.8771 11.3807 61.1697 11.3011C61.4624 11.2187 61.7749 11.1634 62.1072 11.1349C62.4794 11.1009 62.7791 11.0653 63.0064 11.0284C63.2337 10.9886 63.3984 10.9332 63.5007 10.8622C63.6058 10.7884 63.6584 10.6847 63.6584 10.5511V10.5298C63.6584 10.3111 63.5831 10.142 63.4325 10.0227C63.282 9.90341 63.0788 9.84375 62.8232 9.84375C62.5476 9.84375 62.326 9.90341 62.1584 10.0227C61.9908 10.142 61.8842 10.3068 61.8388 10.517L59.9169 10.4489C59.9737 10.0511 60.12 9.69602 60.3558 9.38352C60.5945 9.06818 60.9212 8.82102 61.3359 8.64205C61.7536 8.46023 62.255 8.36932 62.8402 8.36932C63.2578 8.36932 63.6428 8.41903 63.995 8.51847C64.3473 8.61506 64.6541 8.7571 64.9155 8.9446C65.1768 9.12926 65.3786 9.35653 65.5206 9.62642C65.6655 9.89631 65.7379 10.2045 65.7379 10.5511V15H63.7777V14.0881H63.7266C63.6101 14.3097 63.4609 14.4972 63.2791 14.6506C63.1001 14.804 62.8885 14.919 62.6442 14.9957C62.4027 15.0724 62.13 15.1108 61.826 15.1108ZM62.4695 13.7472C62.6939 13.7472 62.8956 13.7017 63.0746 13.6108C63.2564 13.5199 63.4013 13.3949 63.5092 13.2358C63.6172 13.0739 63.6712 12.8864 63.6712 12.6733V12.0511C63.6115 12.0824 63.5391 12.1108 63.4538 12.1364C63.3714 12.1619 63.2805 12.1861 63.1811 12.2088C63.0817 12.2315 62.9794 12.2514 62.8743 12.2685C62.7692 12.2855 62.6683 12.3011 62.5717 12.3153C62.3757 12.3466 62.2081 12.3949 62.0689 12.4602C61.9325 12.5256 61.8274 12.6108 61.7536 12.7159C61.6825 12.8182 61.647 12.9403 61.647 13.0824C61.647 13.2983 61.7237 13.4631 61.8771 13.5767C62.0334 13.6903 62.2308 13.7472 62.4695 13.7472ZM68.1839 15.1236C67.8771 15.1236 67.6143 15.0156 67.3956 14.7997C67.1797 14.5838 67.0732 14.3224 67.076 14.0156C67.0732 13.7145 67.1797 13.4574 67.3956 13.2443C67.6143 13.0284 67.8771 12.9205 68.1839 12.9205C68.4737 12.9205 68.7294 13.0284 68.951 13.2443C69.1754 13.4574 69.2891 13.7145 69.2919 14.0156C69.2891 14.2202 69.2351 14.4062 69.13 14.5739C69.0277 14.7415 68.8928 14.875 68.7251 14.9744C68.5604 15.0739 68.38 15.1236 68.1839 15.1236ZM70.6683 15V8.45455H72.6499V9.65625H72.7223C72.8587 9.25852 73.0888 8.9446 73.4126 8.71449C73.7365 8.48438 74.1229 8.36932 74.5717 8.36932C75.0263 8.36932 75.4155 8.4858 75.7393 8.71875C76.0632 8.9517 76.2692 9.2642 76.3572 9.65625H76.4254C76.5476 9.26705 76.7862 8.95597 77.1413 8.72301C77.4964 8.48722 77.9155 8.36932 78.3984 8.36932C79.0178 8.36932 79.5206 8.56818 79.907 8.96591C80.2933 9.3608 80.4865 9.90341 80.4865 10.5938V15H78.4027V11.071C78.4027 10.7443 78.3189 10.4957 78.1513 10.3253C77.9837 10.152 77.7663 10.0653 77.4993 10.0653C77.2124 10.0653 76.9865 10.1591 76.8217 10.3466C76.6598 10.5312 76.5788 10.7798 76.5788 11.0923V15H74.576V11.0497C74.576 10.7457 74.4936 10.5057 74.3288 10.3295C74.1641 10.1534 73.9467 10.0653 73.6768 10.0653C73.495 10.0653 73.3345 10.1094 73.1953 10.1974C73.0561 10.2827 72.9467 10.4048 72.8672 10.5639C72.7905 10.723 72.7521 10.9105 72.7521 11.1264V15H70.6683ZM84.8374 15.1236C84.1527 15.1236 83.5618 14.9886 83.0646 14.7188C82.5703 14.446 82.1896 14.0582 81.9226 13.5554C81.6584 13.0497 81.5263 12.4489 81.5263 11.7528C81.5263 11.0767 81.6598 10.4858 81.9268 9.98011C82.1939 9.47159 82.5703 9.0767 83.0561 8.79545C83.5419 8.51136 84.1143 8.36932 84.7734 8.36932C85.2393 8.36932 85.6655 8.44176 86.0518 8.58665C86.4382 8.73153 86.772 8.94602 87.0533 9.23011C87.3345 9.5142 87.5533 9.86506 87.7095 10.2827C87.8658 10.6974 87.9439 11.1733 87.9439 11.7102V12.2301H82.255V11.0199H86.005C86.0021 10.7983 85.9496 10.6009 85.8473 10.4276C85.745 10.2543 85.6044 10.1193 85.4254 10.0227C85.2493 9.9233 85.0462 9.87358 84.8161 9.87358C84.5831 9.87358 84.3743 9.92614 84.1896 10.0312C84.005 10.1335 83.8587 10.2741 83.7507 10.4531C83.6428 10.6293 83.5859 10.8295 83.5803 11.054V12.2855C83.5803 12.5526 83.6328 12.7869 83.7379 12.9886C83.843 13.1875 83.9922 13.3423 84.1854 13.4531C84.3786 13.5639 84.6087 13.6193 84.8757 13.6193C85.0604 13.6193 85.228 13.5937 85.3786 13.5426C85.5291 13.4915 85.6584 13.4162 85.7663 13.3168C85.8743 13.2173 85.9553 13.0952 86.0092 12.9503L87.9226 13.0057C87.843 13.4347 87.6683 13.8082 87.3984 14.1264C87.1314 14.4418 86.7805 14.6875 86.3459 14.8636C85.9112 15.0369 85.4084 15.1236 84.8374 15.1236Z" fill="#567bd8"/>
</svg>
